<?xml version="1.0" encoding="UTF-8"?>
<svg version="1.1" xmlns="http://www.w3.org/2000/svg" xmlns:xlink="http://www.w3.org/1999/xlink" viewBox="0 0 17.5098 14.2676">
 <g>
  <rect height="14.2676" opacity="0" width="17.5098" x="0" y="0"/>
  <path d="M2.49026 14.1601L15.3028 14.1601C16.6895 14.1601 17.5098 13.3398 17.5098 11.6992L17.5098 3.84764C17.5098 2.20702 16.6797 1.39648 15.0196 1.39648L7.7051 1.39648C7.22658 1.39648 6.91408 1.25976 6.543 0.95702L6.05472 0.5664C5.5469 0.14648 5.12698 0 4.3848 0L2.1973 0C0.82034 0 2.4e-05 0.80078 2.4e-05 2.43164L2.4e-05 11.6992C2.4e-05 13.3398 0.8301 14.1601 2.49026 14.1601ZM2.5098 12.7441C1.80666 12.7441 1.40628 12.373 1.40628 11.6309L1.40628 2.5C1.40628 1.77734 1.7969 1.40624 2.50002 1.40624L4.0137 1.40624C4.49222 1.40624 4.80472 1.54296 5.1758 1.8457L5.66408 2.23632C6.16214 2.64648 6.59182 2.80272 7.334 2.80272L15 2.80272C15.7031 2.80272 16.1035 3.18358 16.1035 3.92578L16.1035 11.6406C16.1035 12.373 15.7031 12.7441 15 12.7441ZM2.4512 5.2832L15.0586 5.2832L15.0586 4.72656C15.0586 4.2578 14.834 4.05272 14.375 4.05272L3.1348 4.05272C2.68558 4.05272 2.4512 4.2578 2.4512 4.72656Z" fill="currentColor"/>
 </g>
</svg>