<?xml version="1.0" encoding="UTF-8"?>
<!--Generator: Apple Native CoreSVG 341-->
<!DOCTYPE svg
PUBLIC "-//W3C//DTD SVG 1.1//EN"
       "http://www.w3.org/Graphics/SVG/1.1/DTD/svg11.dtd">
<svg version="1.1" xmlns="http://www.w3.org/2000/svg" xmlns:xlink="http://www.w3.org/1999/xlink" viewBox="0 0 16.9822 17.0801">
 <g>
  <rect height="17.0801" opacity="0" width="16.9822" x="0" y="0"/>
  <path d="M9.6582 17.0801C10.2637 17.0801 10.6836 16.5527 10.9961 15.7617L15.957 2.80274C16.1133 2.40234 16.2012 2.05078 16.2012 1.75782C16.2012 1.2207 15.8594 0.878897 15.3223 0.878897C15.0293 0.878897 14.6777 0.966797 14.2871 1.12304L1.24022 6.12304C0.55664 6.38672-2.22045e-16 6.8164-2.22045e-16 7.42188C-2.22045e-16 8.20312 0.605468 8.44726 1.37694 8.68164L6.80664 10.2832L8.38866 15.625C8.62304 16.4453 8.87694 17.0801 9.6582 17.0801ZM7.19726 8.95508L2.06054 7.36328C1.99218 7.34376 1.97266 7.31446 1.97266 7.28516C1.97266 7.2461 1.98242 7.2168 2.06054 7.1875L11.7773 3.51562C12.4707 3.25196 13.1348 2.91016 13.8086 2.59766C13.2227 3.07618 12.5293 3.62304 12.0508 4.10156ZM9.80468 15.127C9.76562 15.127 9.74608 15.0879 9.7168 15.0195L8.125 9.88282L12.9785 5.03906C13.4668 4.55078 14.0234 3.84766 14.4922 3.25196C14.1797 3.92578 13.8281 4.59962 13.5644 5.3125L9.89258 15.0195C9.86328 15.0977 9.84374 15.127 9.80468 15.127Z" fill="white" fill-opacity="0.85"/>
 </g>
</svg>
