<?xml version="1.0" encoding="UTF-8"?>
<svg version="1.1" xmlns="http://www.w3.org/2000/svg" xmlns:xlink="http://www.w3.org/1999/xlink" viewBox="0 0 15.7716 15.7715">
 <g>
  <rect height="15.7715" opacity="0" width="15.7716" x="0" y="0"/>
  <path d="M7.88085 15.7617C12.2363 15.7617 15.7715 12.2363 15.7715 7.88086C15.7715 3.5254 12.2363 0 7.88085 0C3.53515 0 2.22045e-16 3.5254 2.22045e-16 7.88086C2.22045e-16 12.2363 3.53515 15.7617 7.88085 15.7617ZM7.88085 14.2773C4.34571 14.2773 1.49413 11.416 1.49413 7.88086C1.49413 4.3457 4.34571 1.48438 7.88085 1.48438C11.416 1.48438 14.2774 4.3457 14.2774 7.88086C14.2774 11.416 11.416 14.2773 7.88085 14.2773ZM13.1445 12.959L13.1152 12.8613C12.7637 11.7187 10.7227 10.5078 7.88085 10.5078C5.03905 10.5078 3.00781 11.7187 2.65625 12.8613L2.62695 12.959C4.02343 14.3164 6.50391 15.0879 7.88085 15.0879C9.26757 15.0879 11.7481 14.3164 13.1445 12.959ZM7.88085 9.21874C9.35547 9.23828 10.5176 7.97852 10.5176 6.32812C10.5176 4.7754 9.35547 3.4961 7.88085 3.4961C6.41601 3.4961 5.24413 4.7754 5.25391 6.32812C5.26367 7.97852 6.40625 9.19922 7.88085 9.21874Z" fill="currentColor"/>
 </g>
</svg>