<?xml version="1.0" encoding="UTF-8"?>
<svg version="1.1" xmlns="http://www.w3.org/2000/svg" xmlns:xlink="http://www.w3.org/1999/xlink" viewBox="0 0 13.0079 16.4746">
 <g>
  <rect height="16.4746" opacity="0" width="13.0079" x="0" y="0"/>
  <path d="M2.45124 16.4648L10.5469 16.4648C12.1876 16.4648 13.0079 15.6348 13.0079 13.9746L13.0079 7.16796C13.0079 6.09374 12.8907 5.625 12.2169 4.93164L8.16412 0.79102C7.52936 0.13672 7.00202 0 6.06452 0L2.45124 0C0.81062 0 6.4e-05 0.83008 6.4e-05 2.49024L6.4e-05 13.9746C6.4e-05 15.6445 0.81062 16.4648 2.45124 16.4648ZM2.5196 15.0586C1.78718 15.0586 1.40632 14.6582 1.40632 13.9551L1.40632 2.50976C1.40632 1.80664 1.78718 1.40624 2.52936 1.40624L5.82038 1.40624L5.82038 5.75196C5.82038 6.76758 6.33796 7.28516 7.35358 7.28516L11.5919 7.28516L11.5919 13.9551C11.5919 14.6582 11.211 15.0586 10.4786 15.0586ZM7.5196 5.9668C7.24616 5.9668 7.12898 5.8496 7.12898 5.57616L7.12898 1.66992L11.3282 5.9668Z" fill="currentColor"/>
  <path d="M9.22858 9.20898L3.55476 9.20898C3.24226 9.20898 3.00788 9.4336 3.00788 9.72656C3.00788 10.0293 3.24226 10.2637 3.55476 10.2637L9.22858 10.2637C9.53132 10.2637 9.75592 10.0293 9.75592 9.72656C9.75592 9.4336 9.53132 9.20898 9.22858 9.20898Z" fill="currentColor"/>
  <path d="M9.22858 11.8652L3.55476 11.8652C3.24226 11.8652 3.00788 12.0996 3.00788 12.4023C3.00788 12.6953 3.24226 12.9199 3.55476 12.9199L9.22858 12.9199C9.53132 12.9199 9.75592 12.6953 9.75592 12.4023C9.75592 12.0996 9.53132 11.8652 9.22858 11.8652Z" fill="currentColor"/>
 </g>
</svg>