<svg width="132" height="107" viewBox="0 0 132 107" fill="none" xmlns="http://www.w3.org/2000/svg">
<path d="M72.7846 56.5205L81.4453 57.4528L96.0084 50.1107L107.749 57.7582L132 48.3757L94.5972 36.3579L79.0335 53.7066L74.6923 41.997L81.1253 39.4422L82.2797 42.5266L89.4187 32.3724L88.7523 30.922L91.5294 25.3584L87.3638 28.0333L87.125 27.4121L91.2906 21.3134L85.6014 23.6545L76.5056 27.1029C76.5056 27.1029 73.6738 31.7871 71.9265 34.5377L59.1201 0L40.2582 28.9136L19.0865 19.6596L21.5889 42.2164L42.7606 48.2896L56.2335 21.0146L60.0829 32.1965L39.8419 53.0665L53.732 74.6115L19.6331 60.714V66.5621L13.0679 63.4617L0 92.7819L19.6321 82.034V85.9863L66.6263 85.6006L55.8484 64.9717L77.5968 73.4542L53.346 107H92.6093L73.94 94.083H80.1313L104.896 63.4126L56.6186 56.5205L70.8608 52.745L72.7855 56.5205H72.7846Z" fill="black"/>
</svg>
