<svg width="200" height="197" viewBox="0 0 200 197" fill="none" xmlns="http://www.w3.org/2000/svg">
<path d="M200 40.7412C200 50.9686 191.709 59.2598 181.481 59.2598L118.519 59.2598C108.291 59.2598 100 67.5508 100 77.7783C100 88.0057 108.291 96.2969 118.519 96.2969L181.481 96.2969C191.709 96.2969 200 104.588 200 114.815V196.297H118.519C108.291 196.297 100 188.006 100 177.778L100 114.815C100 104.748 91.9658 96.556 81.959 96.3027L81.4814 96.2969C71.2539 96.2969 62.9629 104.588 62.9629 114.815L62.9629 196.297H0L0 77.7783C-4.47059e-07 67.5508 8.29102 59.2598 18.5186 59.2598L44.4443 59.2598C54.6717 59.2597 62.9627 50.9686 62.9629 40.7412L62.9629 18.5186C62.9629 8.29104 71.2539 0 81.4814 0L200 0V40.7412Z" fill="black"/>
</svg>
