<svg width="26" height="26" viewBox="0 0 26 26" fill="none" xmlns="http://www.w3.org/2000/svg">
<rect x="20" y="8" width="6" height="2" fill="black"/>
<rect x="20" y="12" width="6" height="2" fill="black"/>
<rect x="20" y="16" width="6" height="2" fill="black"/>
<rect y="4" width="26" height="2" fill="black"/>
<rect y="8" width="6" height="2" fill="black"/>
<rect y="12" width="6" height="2" fill="black"/>
<rect y="16" width="6" height="2" fill="black"/>
<rect y="20" width="26" height="2" fill="black"/>
<rect x="4" y="26" width="26" height="2" transform="rotate(-90 4 26)" fill="black"/>
<rect x="8" y="6" width="6" height="2" transform="rotate(-90 8 6)" fill="black"/>
<rect x="8" y="26" width="6" height="2" transform="rotate(-90 8 26)" fill="black"/>
<rect x="12" y="6" width="6" height="2" transform="rotate(-90 12 6)" fill="black"/>
<rect x="12" y="26" width="6" height="2" transform="rotate(-90 12 26)" fill="black"/>
<rect x="16" y="6" width="6" height="2" transform="rotate(-90 16 6)" fill="black"/>
<rect x="16" y="26" width="6" height="2" transform="rotate(-90 16 26)" fill="black"/>
<rect x="20" y="26" width="26" height="2" transform="rotate(-90 20 26)" fill="black"/>
</svg>
